# xmcd
#
# Track frame offsets: 
#        150
#        12095
#        26270
#        41410
#        58430
#        69932
#        84075
#        96335
#        108837
#        119255
#        129890
#        145677
#        156327
#        169822
#        179722
#        193234
#        206747
#        220445
#
# Disc length: 3116 seconds
#
# Revision: 1
# Processed by: cddbd v1.5.2PL0 Copyright (c) Steve Scherf et al.
# Submitted via: ExactAudioCopy v0.99pb5
#
DISCID=fc0c2a12
DTITLE=TOM ASTOR - STATIONEN - SEINE GRÖSSTEN ERFOLGE
DYEAR=1900
DGENRE=Country
TTITLE0=Hallo, Guten Morgen Deutschland (Neuaufnahme 1990) (1990)
TTITLE1=Take It Easy - Nimm's Leicht (1991)
TTITLE2=Und Ich Bin Dein Freund (1998)
TTITLE3=Dieser Tag Kann Dein Tag Sein (1996)
TTITLE4=Freunde (Live) (1988)
TTITLE5=International Airport (Frankfurt Am Main) (1998)
TTITLE6=Wer Liebe Sucht (Stand By Your Man) (With Claudia Jung) (1993)
TTITLE7=Von New York City nach L.A. (1989)
TTITLE8=Some Broken Hearts Never Mind (Live) (1996)
TTITLE9=Wenn Ein Zartes Wesen Mit Gefühl (1988)
TTITLE10=Warum Whiskey Pur (1991)
TTITLE11=I Will Rock´N'Roll With You ((With Johnny Cash) (1999)
TTITLE12=Alter Freund, Überhol Dich Nicht Selber (This Is My Year To M
TTITLE12=exico) (1987)
TTITLE13=Sicht Weg, Gas Weg (1987)
TTITLE14=100.000 Tonnen (1994)
TTITLE15=Du Bist Das Größte Für Mich (The Most Beautiful Girl) (1994)
TTITLE16=Hör' Mal Zu Herr Minister (1982)
TTITLE17=Take Me Home Country Roads (1996)
EXTD=ID3G: 2
EXTT0=
EXTT1=
EXTT2=
EXTT3=
EXTT4=
EXTT5=
EXTT6=
EXTT7=
EXTT8=
EXTT9=
EXTT10=
EXTT11=
EXTT12=
EXTT13=
EXTT14=
EXTT15=
EXTT16=
EXTT17=
PLAYORDER=
